<?xml version="1.0" encoding="UTF-8" standalone="no"?>
<!DOCTYPE svg PUBLIC "-//W3C//DTD SVG 1.1//EN" "http://www.w3.org/Graphics/SVG/1.1/DTD/svg11.dtd">
<svg width="100%" height="100%" viewBox="0 0 218 130" version="1.1" xmlns="http://www.w3.org/2000/svg" xmlns:xlink="http://www.w3.org/1999/xlink" xml:space="preserve" xmlns:serif="http://www.serif.com/" style="fill-rule:evenodd;clip-rule:evenodd;stroke-linecap:round;stroke-miterlimit:2;">
    <g transform="matrix(1,0,0,1,-91,0)">
        <g id="logo" transform="matrix(0.0657404,0,0,0.0507352,91.098,0)">
            <rect x="0" y="0" width="3300" height="2550" style="fill:none;"/>
            <g transform="matrix(22.1042,0,0,28.6416,-12564.5,-9435.21)">
                <clipPath id="_clip1">
                    <rect x="619.238" y="365.439" width="98.726" height="31.696"/>
                </clipPath>
                <g clip-path="url(#_clip1)">
                    <text x="588.496px" y="396.647px" style="font-family:'ArialMT', 'Arial', sans-serif;font-size:50px;fill:rgb(23,82,181);">V<tspan x="619.086px 646.894px " y="396.647px 396.647px ">er</tspan>us</text>
                </g>
            </g>
            <g transform="matrix(11.2453,0,0,7.22477,-11249.9,-5566.64)">
                <g transform="matrix(1.35268,0,0,2.72814,-5.35872,4.26326e-14)">
                    <clipPath id="_clip2">
                        <path d="M782.971,371.126L795.377,405.535L846.537,281.753L819.735,281.572L782.971,371.126Z"/>
                    </clipPath>
                    <g clip-path="url(#_clip2)">
                        <path d="M818.144,297.419L836.585,283.893L792.74,406.036L779.438,406.036L818.144,297.419Z" style="fill:rgb(23,82,181);stroke:rgb(48,79,132);stroke-width:1px;"/>
                    </g>
                </g>
                <g transform="matrix(1.35268,0,0,2.72814,1.42109e-14,-7.10543e-15)">
                    <path d="M744.542,325.433L764.063,335.664L788.92,406.036L773.41,406.036L744.542,325.433Z" style="fill:rgb(249,96,44);"/>
                    <path d="M742.737,323.358L772.706,407.036L790.334,407.036L764.875,334.961L742.737,323.358ZM744.542,325.433L764.063,335.664L788.92,406.036L773.41,406.036L744.542,325.433Z" style="fill:rgb(176,99,73);"/>
                </g>
            </g>
            <g transform="matrix(7.02792,0,0,9.10647,-4043.59,-1838.91)">
                <path d="M767.413,449.328C768.406,449.588 769.277,449.946 770.026,450.402C770.774,450.857 771.397,451.386 771.893,451.989C772.39,452.591 772.76,453.242 773.004,453.942C773.248,454.642 773.37,455.366 773.37,456.115C773.37,457.531 773.11,458.747 772.589,459.765C772.068,460.782 771.328,461.616 770.368,462.267C769.407,462.918 768.248,463.398 766.889,463.707C765.529,464.017 764.004,464.171 762.311,464.171L751.032,464.171L751.032,436.412L762.164,436.412C765.436,436.412 767.89,436.962 769.525,438.06C771.161,439.159 771.979,440.88 771.979,443.224C771.979,443.794 771.885,444.371 771.698,444.957C771.511,445.543 771.226,446.105 770.844,446.642C770.461,447.179 769.985,447.68 769.415,448.143C768.846,448.607 768.178,449.002 767.413,449.328ZM755.573,447.716L761.359,447.716C762.205,447.716 763.003,447.659 763.751,447.545C764.5,447.431 765.155,447.228 765.717,446.935C766.278,446.642 766.718,446.243 767.035,445.739C767.352,445.234 767.511,444.591 767.511,443.81C767.511,443.029 767.352,442.406 767.035,441.942C766.718,441.478 766.29,441.124 765.753,440.88C765.216,440.636 764.585,440.482 763.861,440.416C763.137,440.351 762.36,440.319 761.53,440.319L755.573,440.319L755.573,447.716ZM755.573,460.265L762.262,460.265C763.515,460.265 764.557,460.155 765.387,459.935C766.217,459.716 766.88,459.415 767.377,459.032C767.873,458.65 768.223,458.198 768.427,457.677C768.63,457.156 768.732,456.587 768.732,455.968C768.732,455.333 768.622,454.752 768.402,454.223C768.182,453.694 767.804,453.242 767.267,452.868C766.73,452.493 766.018,452.2 765.131,451.989C764.244,451.777 763.141,451.671 761.823,451.671L755.573,451.671L755.573,460.265Z" style="fill:rgb(250,96,43);"/>
                <rect x="779.376" y="436.412" width="4.541" height="27.759" style="fill:rgb(250,96,43);"/>
                <path d="M803.888,435.973C805.955,435.973 807.843,436.319 809.552,437.011C811.261,437.702 812.73,438.679 813.959,439.94C815.188,441.202 816.14,442.711 816.815,444.469C817.491,446.227 817.828,448.18 817.828,450.329C817.828,452.461 817.491,454.406 816.815,456.163C816.14,457.921 815.192,459.427 813.971,460.68C812.75,461.933 811.281,462.902 809.564,463.585C807.847,464.269 805.955,464.611 803.888,464.611C801.74,464.611 799.799,464.249 798.065,463.524C796.332,462.8 794.859,461.807 793.646,460.546C792.434,459.284 791.502,457.807 790.851,456.115C790.2,454.422 789.874,452.607 789.874,450.67C789.874,448.359 790.216,446.292 790.9,444.469C791.583,442.646 792.544,441.108 793.781,439.855C795.018,438.602 796.495,437.641 798.212,436.974C799.929,436.307 801.821,435.973 803.888,435.973ZM803.839,460.875C805.272,460.875 806.557,460.631 807.697,460.143C808.836,459.655 809.8,458.959 810.59,458.056C811.379,457.152 811.989,456.05 812.421,454.747C812.852,453.445 813.084,451.972 813.117,450.329C813.117,448.668 812.893,447.179 812.445,445.861C811.998,444.542 811.371,443.432 810.565,442.528C809.76,441.625 808.795,440.933 807.672,440.453C806.549,439.973 805.304,439.733 803.937,439.733C802.553,439.733 801.288,439.953 800.14,440.392C798.993,440.831 798.004,441.503 797.174,442.406C796.344,443.309 795.697,444.449 795.233,445.824C794.769,447.199 794.537,448.831 794.537,450.719C794.537,452.217 794.753,453.584 795.184,454.821C795.616,456.058 796.234,457.128 797.04,458.031C797.846,458.934 798.822,459.634 799.97,460.131C801.117,460.627 802.407,460.875 803.839,460.875Z" style="fill:rgb(250,96,43);"/>
                <path d="M840.363,444.664C840.216,443.053 839.585,441.808 838.471,440.929C837.356,440.05 835.757,439.611 833.673,439.611C832.762,439.611 831.919,439.696 831.146,439.867C830.373,440.038 829.702,440.29 829.132,440.624C828.563,440.958 828.119,441.364 827.802,441.845C827.484,442.325 827.326,442.866 827.326,443.468C827.326,444.005 827.439,444.477 827.667,444.884C827.895,445.291 828.294,445.657 828.864,445.983C829.433,446.308 830.215,446.618 831.207,446.911C832.2,447.204 833.47,447.505 835.016,447.814C836.546,448.139 837.962,448.497 839.264,448.888C840.566,449.279 841.693,449.791 842.645,450.426C843.598,451.061 844.342,451.854 844.879,452.807C845.416,453.759 845.685,454.951 845.685,456.383C845.685,457.588 845.416,458.694 844.879,459.704C844.342,460.713 843.589,461.579 842.621,462.304C841.653,463.028 840.493,463.593 839.142,464C837.791,464.407 836.302,464.611 834.674,464.611C832.591,464.611 830.764,464.383 829.193,463.927C827.623,463.471 826.304,462.833 825.238,462.011C824.172,461.189 823.362,460.2 822.809,459.044C822.256,457.889 821.946,456.611 821.881,455.211L826.227,454.918C826.292,455.944 826.552,456.835 827.008,457.592C827.464,458.349 828.058,458.979 828.79,459.484C829.523,459.988 830.369,460.363 831.329,460.607C832.29,460.851 833.307,460.973 834.381,460.973C835.423,460.973 836.367,460.867 837.213,460.656C838.06,460.444 838.784,460.143 839.386,459.752C839.988,459.362 840.452,458.894 840.778,458.349C841.103,457.803 841.266,457.197 841.266,456.53C841.266,455.895 841.156,455.342 840.936,454.87C840.717,454.398 840.285,453.966 839.642,453.576C839,453.185 838.096,452.823 836.932,452.489C835.769,452.155 834.251,451.801 832.379,451.427C830.719,451.085 829.295,450.67 828.107,450.182C826.919,449.694 825.95,449.128 825.202,448.485C824.453,447.842 823.904,447.118 823.554,446.312C823.204,445.507 823.029,444.607 823.029,443.615C823.029,442.508 823.273,441.487 823.761,440.551C824.249,439.615 824.949,438.809 825.861,438.134C826.772,437.458 827.875,436.929 829.169,436.547C830.463,436.164 831.915,435.973 833.527,435.973C835.154,435.973 836.648,436.16 838.007,436.535C839.366,436.909 840.534,437.454 841.51,438.17C842.487,438.886 843.26,439.765 843.829,440.807C844.399,441.849 844.716,443.037 844.782,444.371L840.363,444.664Z" style="fill:rgb(250,96,43);"/>
                <path d="M875.787,455.211C875.364,456.644 874.795,457.938 874.078,459.093C873.362,460.249 872.492,461.238 871.466,462.059C870.441,462.881 869.257,463.512 867.914,463.952C866.571,464.391 865.078,464.611 863.434,464.611C861.237,464.611 859.3,464.265 857.623,463.573C855.947,462.881 854.543,461.901 853.412,460.631C852.281,459.362 851.426,457.832 850.848,456.041C850.271,454.251 849.982,452.257 849.982,450.06C849.982,447.814 850.328,445.816 851.019,444.066C851.711,442.317 852.667,440.844 853.888,439.647C855.109,438.451 856.561,437.54 858.246,436.913C859.931,436.286 861.774,435.973 863.776,435.973C865.403,435.973 866.848,436.168 868.109,436.559C869.371,436.95 870.465,437.503 871.393,438.219C872.321,438.935 873.102,439.794 873.737,440.795C874.371,441.796 874.884,442.907 875.275,444.127L870.831,444.933C869.676,441.466 867.275,439.733 863.629,439.733C862.164,439.733 860.875,439.969 859.76,440.441C858.645,440.913 857.713,441.592 856.964,442.479C856.216,443.366 855.65,444.449 855.267,445.726C854.885,447.004 854.694,448.449 854.694,450.06C854.694,451.948 854.901,453.572 855.316,454.931C855.731,456.29 856.317,457.409 857.074,458.287C857.831,459.166 858.742,459.817 859.808,460.241C860.875,460.664 862.05,460.875 863.336,460.875C865.468,460.875 867.198,460.31 868.524,459.179C869.851,458.047 870.774,456.448 871.295,454.381L875.787,455.211Z" style="fill:rgb(250,96,43);"/>
                <rect x="881.207" y="436.412" width="4.541" height="27.759" style="fill:rgb(250,96,43);"/>
                <path d="M915.314,464.171L893.17,464.171L893.17,436.412L914.606,436.412L914.606,440.319L897.711,440.319L897.711,447.863L913.507,447.863L913.507,451.769L897.711,451.769L897.711,460.265L915.314,460.265L915.314,464.171Z" style="fill:rgb(250,96,43);"/>
                <path d="M944.22,464.171L939.581,464.171L925.275,443.224L925.177,443.224L925.177,464.171L920.88,464.171L920.88,436.412L925.47,436.412L939.777,457.36L939.874,457.36L939.874,436.412L944.22,436.412L944.22,464.171Z" style="fill:rgb(250,96,43);"/>
                <path d="M975.983,455.211C975.56,456.644 974.99,457.938 974.274,459.093C973.558,460.249 972.687,461.238 971.661,462.059C970.636,462.881 969.452,463.512 968.109,463.952C966.766,464.391 965.273,464.611 963.629,464.611C961.432,464.611 959.495,464.265 957.819,463.573C956.142,462.881 954.738,461.901 953.607,460.631C952.476,459.362 951.622,457.832 951.044,456.041C950.466,454.251 950.177,452.257 950.177,450.06C950.177,447.814 950.523,445.816 951.215,444.066C951.906,442.317 952.863,440.844 954.083,439.647C955.304,438.451 956.757,437.54 958.441,436.913C960.126,436.286 961.969,435.973 963.971,435.973C965.599,435.973 967.043,436.168 968.305,436.559C969.566,436.95 970.661,437.503 971.588,438.219C972.516,438.935 973.297,439.794 973.932,440.795C974.567,441.796 975.079,442.907 975.47,444.127L971.027,444.933C969.871,441.466 967.47,439.733 963.825,439.733C962.36,439.733 961.07,439.969 959.955,440.441C958.84,440.913 957.908,441.592 957.16,442.479C956.411,443.366 955.845,444.449 955.463,445.726C955.08,447.004 954.889,448.449 954.889,450.06C954.889,451.948 955.097,453.572 955.512,454.931C955.927,456.29 956.513,457.409 957.269,458.287C958.026,459.166 958.938,459.817 960.004,460.241C961.07,460.664 962.246,460.875 963.532,460.875C965.664,460.875 967.393,460.31 968.72,459.179C970.046,458.047 970.97,456.448 971.491,454.381L975.983,455.211Z" style="fill:rgb(250,96,43);"/>
                <path d="M1003.55,464.171L981.403,464.171L981.403,436.412L1002.84,436.412L1002.84,440.319L985.944,440.319L985.944,447.863L1001.74,447.863L1001.74,451.769L985.944,451.769L985.944,460.265L1003.55,460.265L1003.55,464.171Z" style="fill:rgb(250,96,43);"/>
                <path d="M1025.69,444.664C1025.54,443.053 1024.91,441.808 1023.8,440.929C1022.68,440.05 1021.08,439.611 1019,439.611C1018.09,439.611 1017.25,439.696 1016.47,439.867C1015.7,440.038 1015.03,440.29 1014.46,440.624C1013.89,440.958 1013.45,441.364 1013.13,441.845C1012.81,442.325 1012.65,442.866 1012.65,443.468C1012.65,444.005 1012.77,444.477 1012.99,444.884C1013.22,445.291 1013.62,445.657 1014.19,445.983C1014.76,446.308 1015.54,446.618 1016.53,446.911C1017.53,447.204 1018.8,447.505 1020.34,447.814C1021.87,448.139 1023.29,448.497 1024.59,448.888C1025.89,449.279 1027.02,449.791 1027.97,450.426C1028.92,451.061 1029.67,451.854 1030.21,452.807C1030.74,453.759 1031.01,454.951 1031.01,456.383C1031.01,457.588 1030.74,458.694 1030.21,459.704C1029.67,460.713 1028.92,461.579 1027.95,462.304C1026.98,463.028 1025.82,463.593 1024.47,464C1023.12,464.407 1021.63,464.611 1020,464.611C1017.92,464.611 1016.09,464.383 1014.52,463.927C1012.95,463.471 1011.63,462.833 1010.57,462.011C1009.5,461.189 1008.69,460.2 1008.14,459.044C1007.58,457.889 1007.27,456.611 1007.21,455.211L1011.55,454.918C1011.62,455.944 1011.88,456.835 1012.34,457.592C1012.79,458.349 1013.38,458.979 1014.12,459.484C1014.85,459.988 1015.7,460.363 1016.66,460.607C1017.62,460.851 1018.63,460.973 1019.71,460.973C1020.75,460.973 1021.69,460.867 1022.54,460.656C1023.39,460.444 1024.11,460.143 1024.71,459.752C1025.32,459.362 1025.78,458.894 1026.11,458.349C1026.43,457.803 1026.59,457.197 1026.59,456.53C1026.59,455.895 1026.48,455.342 1026.26,454.87C1026.04,454.398 1025.61,453.966 1024.97,453.576C1024.33,453.185 1023.42,452.823 1022.26,452.489C1021.1,452.155 1019.58,451.801 1017.71,451.427C1016.05,451.085 1014.62,450.67 1013.43,450.182C1012.25,449.694 1011.28,449.128 1010.53,448.485C1009.78,447.842 1009.23,447.118 1008.88,446.312C1008.53,445.507 1008.36,444.607 1008.36,443.615C1008.36,442.508 1008.6,441.487 1009.09,440.551C1009.58,439.615 1010.28,438.809 1011.19,438.134C1012.1,437.458 1013.2,436.929 1014.5,436.547C1015.79,436.164 1017.24,435.973 1018.85,435.973C1020.48,435.973 1021.98,436.16 1023.33,436.535C1024.69,436.909 1025.86,437.454 1026.84,438.17C1027.81,438.886 1028.59,439.765 1029.16,440.807C1029.73,441.849 1030.04,443.037 1030.11,444.371L1025.69,444.664Z" style="fill:rgb(250,96,43);"/>
            </g>
        </g>
    </g>
</svg>
