<?xml version="1.0" encoding="UTF-8" standalone="no"?><!DOCTYPE svg PUBLIC "-//W3C//DTD SVG 1.1//EN" "http://www.w3.org/Graphics/SVG/1.1/DTD/svg11.dtd"><svg width="100%" height="100%" viewBox="0 0 72 46" version="1.1" xmlns="http://www.w3.org/2000/svg" xmlns:xlink="http://www.w3.org/1999/xlink" xml:space="preserve" xmlns:serif="http://www.serif.com/" style="fill-rule:evenodd;clip-rule:evenodd;stroke-linecap:round;stroke-miterlimit:2;"><rect id="logo" x="0" y="0" width="71.938" height="44.926" style="fill:none;"/><clipPath id="_clip1"><rect x="0" y="0" width="71.938" height="44.926"/></clipPath><g clip-path="url(#_clip1)"><clipPath id="_clip2"><rect x="17.052" y="12.066" width="53.725" height="17.249"/></clipPath><g clip-path="url(#_clip2)"><text x="0.323px" y="29.049px" style="font-family:'OpenSans', 'Open Sans', sans-serif;font-size:27.209px;fill:#11459c;">V<tspan x="15.973px 31.238px " y="29.049px 29.049px ">er</tspan>us</text></g><g><path d="M18.556,0l2.352,0l-10.522,29.314l-2.276,0l10.446,-29.314Z" style="fill:#11459c;stroke:#11459c;stroke-width:0.24px;"/><path d="M1.161,9.97l2.391,0l6.834,19.344l-2.297,0l-6.928,-19.344Z" style="fill:#f9602c;"/><path d="M0.82,9.73l7.1,19.824l2.805,0l-7.003,-19.824l-2.902,0Zm0.341,0.24l2.391,0l6.834,19.344l-2.297,0l-6.928,-19.344Z" style="fill:#fa602b;"/></g><g transform="matrix(0.297278,0,0,0.297278,-222.46,-94.7609)"><text x="747.321px" y="464.171px" style="font-family:'OpenSans', 'Open Sans', sans-serif;font-size:50px;fill:#fa602b;">B</text><text x="779.718px" y="464.171px" style="font-family:'OpenSans', 'Open Sans', sans-serif;font-size:37.483px;fill:#fa602b;">IOSCIENCES</text></g></g></svg>